<svg xmlns="http://www.w3.org/2000/svg" viewBox="0 0 96 96">
    <defs>
        <linearGradient id="dynamics_gradient" x1="0%" y1="0%" x2="100%" y2="100%">
            <stop offset="0%" style="stop-color:#088142"/>
            <stop offset="100%" style="stop-color:#07713A"/>
        </linearGradient>
    </defs>
    <path fill="url(#dynamics_gradient)" d="M48 0a48 48 0 1 0 48 48A48 48 0 0 0 48 0zm0 84a36 36 0 1 1 36-36 36 36 0 0 1-36 36zm19.85-46.37L49.71 55.77a3 3 0 0 1-4.24 0L35.32 45.63a3 3 0 0 1 0-4.24l18.14-18.14a3 3 0 0 1 4.24 0l10.15 10.14a3 3 0 0 1 0 4.24z"/>
</svg>
